<?xml version="1.0" encoding="UTF-8"?><svg id="_레이어_2" xmlns="http://www.w3.org/2000/svg" viewBox="0 0 15 19"><g id="_레이어_1-2"><path id="_" d="M7.72,4.38c.83,0,1.87-.58,2.5-1.35,.56-.7,.97-1.68,.97-2.66,0-.13-.01-.27-.04-.37-.93,.04-2.04,.64-2.71,1.45-.53,.62-1.01,1.58-1.01,2.57,0,.14,.02,.29,.04,.34,.06,.01,.15,.02,.25,.02Zm-2.93,14.62c1.14,0,1.64-.79,3.06-.79s1.76,.76,3.02,.76,2.07-1.18,2.86-2.34c.88-1.33,1.24-2.63,1.27-2.69-.08-.02-2.46-1.03-2.46-3.84,0-2.44,1.88-3.54,1.98-3.62-1.24-1.84-3.13-1.88-3.64-1.88-1.39,0-2.53,.87-3.25,.87-.77,0-1.79-.82-3-.82C2.33,4.64,0,6.6,0,10.29c0,2.29,.87,4.72,1.93,6.29,.91,1.33,1.71,2.42,2.86,2.42Z"/></g></svg>