<?xml version="1.0" standalone="no"?>
<!DOCTYPE svg PUBLIC "-//W3C//DTD SVG 20010904//EN"
 "http://www.w3.org/TR/2001/REC-SVG-20010904/DTD/svg10.dtd">
<svg version="1.0" xmlns="http://www.w3.org/2000/svg"
 width="200.000000pt" height="200.000000pt" viewBox="0 0 200.000000 200.000000"
 preserveAspectRatio="xMidYMid meet">

<g transform="translate(0.000000,200.000000) scale(0.100000,-0.100000)"
fill="#000000" stroke="none">
<path d="M1625 1554 c-94 -12 -295 -36 -1125 -134 -184 -22 -350 -42 -367 -45
l-33 -6 0 -424 0 -425 32 0 c18 0 104 9 192 20 89 11 447 54 796 95 349 41
650 77 668 80 l32 6 0 424 0 425 -47 -1 c-27 -1 -93 -7 -148 -15z m145 -414
l0 -379 -32 -5 c-18 -3 -244 -31 -503 -61 -259 -31 -600 -71 -758 -90 -159
-19 -297 -35 -308 -35 -18 0 -19 12 -19 380 l0 379 33 5 c17 3 320 40 672 81
352 42 685 82 740 89 55 8 117 14 138 15 l37 1 0 -380z"/>
<path d="M1620 1414 c-52 -7 -105 -13 -117 -13 -20 -1 -23 -6 -23 -46 0 -43 1
-45 30 -45 45 0 51 -22 48 -192 l-3 -152 -133 203 -133 203 -77 -7 c-123 -11
-124 -11 -120 -59 3 -36 6 -41 26 -38 49 7 52 -4 52 -234 0 -209 0 -213 -22
-228 -12 -9 -30 -16 -40 -16 -15 0 -18 -9 -18 -45 0 -25 4 -45 8 -45 4 0 62 7
127 15 66 8 123 15 128 15 4 0 7 20 7 45 l0 45 -57 -7 c-55 -6 -57 -5 -43 12
11 14 16 57 20 183 l5 164 134 -207 135 -207 85 6 c47 4 89 10 93 12 4 3 8 23
8 45 0 39 0 39 -40 39 l-40 0 0 234 0 233 40 7 c40 6 40 6 40 51 0 30 -4 45
-12 44 -7 -1 -56 -7 -108 -15z"/>
<path d="M946 1381 c-27 -6 -36 -23 -172 -361 -79 -195 -143 -360 -144 -366 0
-13 96 -2 109 12 6 7 158 382 288 712 6 13 -29 15 -81 3z"/>
<path d="M409 1271 c-39 -6 -58 -18 -132 -85 -92 -83 -94 -89 -48 -130 20 -18
21 -18 71 24 l50 42 0 -195 c0 -232 1 -230 -105 -239 -28 -3 -30 -6 -33 -45
-3 -43 -3 -43 30 -43 44 1 327 35 332 41 2 2 6 22 7 44 l4 40 -40 -3 c-22 -1
-54 -5 -72 -8 l-32 -5 14 28 c12 22 15 80 15 286 0 141 -3 256 -7 256 -5 -1
-29 -5 -54 -8z"/>
</g>
</svg>
